<svg width="266" height="240" viewBox="0 0 266 240" fill="none" xmlns="http://www.w3.org/2000/svg">
<path d="M133.875 122.267C133.875 120.482 133.543 118.714 132.897 117.065C132.252 115.416 131.305 113.918 130.113 112.656C128.92 111.395 127.504 110.394 125.946 109.711C124.388 109.029 122.718 108.678 121.031 108.679H43.9687C42.2828 108.679 40.6134 109.03 39.0558 109.713C37.4982 110.396 36.083 111.397 34.8908 112.659C33.6987 113.92 32.7531 115.418 32.1079 117.067C31.4627 118.715 31.1307 120.482 31.1307 122.267C31.1307 124.051 31.4627 125.818 32.1079 127.466C32.7531 129.115 33.6987 130.613 34.8908 131.874C36.083 133.136 37.4982 134.137 39.0558 134.82C40.6134 135.503 42.2828 135.854 43.9687 135.854H121.031C122.718 135.855 124.388 135.504 125.946 134.822C127.504 134.139 128.92 133.138 130.113 131.877C131.305 130.615 132.252 129.117 132.897 127.468C133.543 125.819 133.875 124.051 133.875 122.267ZM111.042 82.9957C111.042 81.2108 110.709 79.4434 110.064 77.7945C109.418 76.1456 108.472 74.6474 107.279 73.3856C106.087 72.1238 104.671 71.123 103.113 70.4405C101.554 69.7581 99.8843 69.4072 98.1979 69.408H43.9687C42.2506 69.3537 40.5396 69.6651 38.9373 70.3235C37.3349 70.982 35.8737 71.9741 34.6403 73.2412C33.4069 74.5083 32.4263 76.0246 31.7567 77.7001C31.0871 79.3757 30.7421 81.1764 30.7421 82.9957C30.7421 84.815 31.0871 86.6157 31.7567 88.2913C32.4263 89.9668 33.4069 91.483 34.6403 92.7501C35.8737 94.0172 37.3349 95.0094 38.9373 95.6678C40.5396 96.3263 42.2506 96.6376 43.9687 96.5834H98.1979C99.8843 96.5842 101.554 96.2333 103.113 95.5508C104.671 94.8683 106.087 93.8676 107.279 92.6058C108.472 91.344 109.418 89.8458 110.064 88.1969C110.709 86.5479 111.042 84.7806 111.042 82.9957ZM88.2083 43.7249C88.2083 40.1196 86.8551 36.6619 84.4464 34.1126C82.0378 31.5633 78.7709 30.1311 75.3645 30.1311L43.9687 30.1371C40.6301 30.2425 37.4616 31.7203 35.1353 34.257C32.809 36.7937 31.5078 40.1897 31.5078 43.7249C31.5078 47.26 32.809 50.656 35.1353 53.1927C37.4616 55.7294 40.6301 57.2072 43.9687 57.3126H75.3645C78.7699 57.3126 82.0359 55.8812 84.4444 53.3332C86.8529 50.7852 88.2068 47.3291 88.2083 43.7249Z" fill="white"/>
</svg>
