<?xml version="1.0" encoding="utf-8"?>
<!-- Generator: Adobe Illustrator 24.0.0, SVG Export Plug-In . SVG Version: 6.00 Build 0)  -->
<svg version="1.1" id="Calque_1" xmlns="http://www.w3.org/2000/svg" xmlns:xlink="http://www.w3.org/1999/xlink" x="0px" y="0px"
	 viewBox="0 0 1920 334.6" style="enable-background:new 0 0 1920 334.6;" xml:space="preserve">
<style type="text/css">
	.st0{fill:#24B6FF;}
	.st1{fill:#FFFFFF;}
	.st2{stroke:#FFFFFF;stroke-width:5;stroke-miterlimit:10;}
</style>
<title>Wave_Bar</title>
<path class="st0" d="M1920,0v264.6c-78.8,11.5-160.3,22-244.5,31.1c-64.2,6.9-127.1,12.8-188.5,17.6c-41.4,2.4-104.1,5.3-180.4,5.3
	c-252.2,0.1-437.5-32.2-495.9-39.7C533.4,243.4,198.8,273.4,0,302.2V0H1920z"/>
<path class="st0" d="M350-307"/>
<path class="st1" d="M1743.5,79.1c-7.9,0-13.9-2.2-18-6.6c-4.1-4.4-6.2-10.6-6.2-18.7c0-4,0.6-7.6,1.9-10.7c1.3-3.1,3-5.8,5.2-8
	c2.2-2.2,4.8-3.8,7.8-4.9c3-1.1,6.3-1.7,9.9-1.7c2,0,3.9,0.2,5.6,0.5c1.7,0.3,3.1,0.7,4.4,1c1.3,0.4,2.3,0.8,3.1,1.2s1.4,0.7,1.8,1
	l-3.1,8.8c-1.5-0.8-3.2-1.5-5.2-2c-2-0.6-4.2-0.8-6.7-0.8c-1.7,0-3.3,0.3-4.9,0.8c-1.6,0.6-3,1.5-4.3,2.7c-1.2,1.2-2.2,2.8-3,4.8
	c-0.7,2-1.1,4.3-1.1,7.1c0,2.2,0.2,4.3,0.7,6.3c0.5,1.9,1.3,3.6,2.4,5c1.1,1.4,2.5,2.5,4.3,3.3c1.8,0.8,3.9,1.2,6.4,1.2
	c1.6,0,3-0.1,4.3-0.3c1.3-0.2,2.4-0.4,3.4-0.7c1-0.3,1.8-0.5,2.6-0.9c0.7-0.3,1.4-0.6,2-0.9l3,8.7c-1.5,0.9-3.7,1.8-6.5,2.5
	C1750.4,78.7,1747.2,79.1,1743.5,79.1z"/>
<path class="st1" d="M1798.4,53.8c0,8.2-1.5,14.4-4.6,18.8c-3.1,4.4-7.4,6.5-12.8,6.5s-9.7-2.2-12.8-6.5c-3.1-4.4-4.6-10.6-4.6-18.8
	c0-4.1,0.4-7.6,1.2-10.8c0.8-3.1,2-5.8,3.5-7.9c1.5-2.1,3.4-3.8,5.5-4.9c2.1-1.1,4.5-1.7,7.2-1.7c5.5,0,9.7,2.2,12.8,6.5
	C1796.9,39.4,1798.4,45.7,1798.4,53.8z M1787.8,53.8c0-2.4-0.1-4.6-0.3-6.6c-0.2-2-0.6-3.7-1.1-5.1c-0.5-1.4-1.2-2.6-2.1-3.4
	c-0.9-0.8-2-1.2-3.3-1.2c-1.3,0-2.4,0.4-3.3,1.2c-0.9,0.8-1.6,1.9-2.1,3.4c-0.5,1.4-0.9,3.2-1.2,5.1c-0.2,2-0.3,4.2-0.3,6.6
	c0,2.4,0.1,4.6,0.3,6.6c0.2,2,0.6,3.7,1.2,5.2c0.5,1.4,1.2,2.6,2.1,3.4c0.9,0.8,1.9,1.2,3.3,1.2c1.3,0,2.4-0.4,3.3-1.2
	c0.9-0.8,1.6-1.9,2.1-3.4c0.5-1.4,0.9-3.2,1.1-5.2C1787.7,58.4,1787.8,56.2,1787.8,53.8z"/>
<path class="st1" d="M1838.1,76.9c-0.9,0.3-2,0.5-3.2,0.8c-1.2,0.3-2.5,0.5-3.8,0.7c-1.3,0.2-2.7,0.3-4.1,0.5
	c-1.4,0.1-2.7,0.2-4,0.2c-3,0-5.7-0.4-8.1-1.3s-4.4-2.2-6-3.8c-1.6-1.7-2.9-3.7-3.7-6c-0.9-2.4-1.3-5-1.3-7.9c0-3,0.4-5.7,1.1-8.1
	c0.7-2.4,1.8-4.4,3.2-6.1c1.4-1.7,3.1-3,5.1-3.8c2-0.9,4.3-1.3,7-1.3c1.4,0,2.7,0.1,3.9,0.4c1.1,0.3,2.3,0.7,3.5,1.2V25.5l10.4-1.7
	V76.9z M1814.6,59.4c0,3.2,0.7,5.8,2.2,7.8c1.4,2,3.6,2.9,6.4,2.9c0.9,0,1.8,0,2.6-0.1c0.8-0.1,1.4-0.2,2-0.2V50.8
	c-0.7-0.4-1.5-0.8-2.6-1c-1-0.3-2.1-0.4-3.2-0.4C1817,49.4,1814.6,52.7,1814.6,59.4z"/>
<path class="st1" d="M1879.5,41.3c-2.1,7.1-4.3,13.7-6.6,19.9c-2.3,6.2-4.8,12.2-7.5,18c-1,2.1-2,3.9-2.9,5.3
	c-1,1.5-2.1,2.7-3.2,3.6c-1.2,1-2.5,1.7-4,2.1c-1.5,0.4-3.2,0.7-5.1,0.7c-1.6,0-3.1-0.2-4.5-0.5c-1.4-0.3-2.5-0.6-3.4-1l1.8-8.3
	c1.1,0.4,2,0.6,2.9,0.8s1.7,0.2,2.7,0.2c1.9,0,3.3-0.5,4.3-1.5c1-1,1.9-2.4,2.6-4.2c-2.4-4.7-4.8-9.9-7.1-15.7
	c-2.4-5.8-4.6-12.3-6.7-19.5h11c0.5,1.8,1,3.8,1.7,5.9c0.6,2.1,1.3,4.3,2,6.4c0.7,2.2,1.4,4.3,2.1,6.3c0.7,2.1,1.4,3.9,2.1,5.6
	c0.6-1.7,1.2-3.5,1.9-5.6c0.7-2.1,1.3-4.2,1.9-6.3c0.6-2.2,1.2-4.3,1.8-6.4c0.6-2.1,1.1-4.1,1.6-5.9H1879.5z"/>
<line class="st2" x1="1774.1" y1="37.5" x2="1787.8" y2="70.1"/>
</svg>
