<svg xmlns="http://www.w3.org/2000/svg" viewBox="0 0 298.52 319.21"><title>Fichier 5</title><g id="Calque_2" data-name="Calque 2"><g id="Calque_1-2" data-name="Calque 1"><path d="M298.52,160.5c0,51.54-22.59,97.4-57.71,126.77a143.55,143.55,0,0,1-69.17,31.94,382.36,382.36,0,0,0-27.38-33.71c-14.31-15.71-45-46.22-90.12-73.94A405.35,405.35,0,0,0,1.63,184.24h0A173.46,173.46,0,0,1,0,160.5a171,171,0,0,1,8.7-54.1C29.34,44.37,84.49,0,149.26,0,231.69,0,298.52,71.86,298.52,160.5Z" style="fill:#fff"/></g></g></svg>