<svg xmlns="http://www.w3.org/2000/svg" viewBox="0 0 298.52 321"><title>Fichier 3</title><g id="Calque_2" data-name="Calque 2"><g id="Calque_1-2" data-name="Calque 1"><path d="M298.52,160.5a171.77,171.77,0,0,1-5.35,42.72q-2.66,1.5-5.29,3.06c-46.07,27.12-76.72,57.57-88.26,69-6.48,6.44-21,21.7-38,45.14q-6.13.56-12.41.55a140.26,140.26,0,0,1-67-17C33.47,277.56,0,223.23,0,160.5,0,71.86,66.83,0,149.26,0c69.07,0,127.19,50.45,144.21,119A172.23,172.23,0,0,1,298.52,160.5Z" style="fill:#fff"/></g></g></svg>