<svg xmlns="http://www.w3.org/2000/svg" viewBox="0 0 936.03 786.78"><title>Fichier 7</title><g id="Calque_2" data-name="Calque 2"><g id="Calque_1-2" data-name="Calque 1"><path d="M43.3,465s75-267,131-333,294-87,294-87l274,73,72,87,58,99,5,125V547s-9,71-16,74-57,48-60,50-102,57-110,58-135-3-142,0-172,13-179,12-135-32-138-34-119-48-119-48l-58-110Z" style="fill:#ccc;opacity:0.30000000000000004"/><path d="M929.75,417.14c-4.32-35.79-19-122.29-78.15-209.87A460.56,460.56,0,0,0,810.5,155c-17-18.67-84.28-89.47-191-128.6A426.61,426.61,0,0,0,471.94,0Q464,0,456,.3A429.55,429.55,0,0,0,293.26,39C216.7,73.72,166.65,122.14,146.55,142.11c-7.29,7.24-35.16,35.66-64.5,81.85C52.12,271.07,20.66,336.66,8,417.14c-8.42,53.39-19.09,127.63,20.42,202,6.33,11.93,27.29,49,75.2,86,22.25,17.19,111.59,81.71,313.58,81.71q22.72,0,47.4-1.13c173.51-8.17,359.84-16.84,437.26-147.19C947.23,562,936.78,475.39,929.75,417.14Zm-69.18,99.58c-1.87,33-9.47,60.27-23.23,83.44-24.2,40.74-67.45,67.72-136.13,84.91-70.63,17.68-156.6,21.72-239.74,25.64l-.44,0c-14.86.7-29.62,1-43.87,1-77.1,0-143.92-10.06-198.6-29.91-27.94-10.14-51.2-22.3-69.14-36.16-32.45-25.06-48.27-49.46-54.81-61.78-12.09-22.74-18.45-47.7-19.46-76.3s3.56-57.65,6.9-78.8c9-56.93,30-111.92,62.55-163.46,5.76-9.13,11.44-17.44,16.86-24.92,17-23.44,31.47-38.7,37.95-45.14,11.54-11.46,42.19-41.91,88.26-69q2.64-1.56,5.29-3.06c52.25-29.7,108-45.83,165.79-48,4.38-.16,8.82-.24,13.19-.24,48.13,0,95.18,9.81,140.47,29.24h0a405.35,405.35,0,0,1,52.51,27.32c45.07,27.72,75.81,58.23,90.12,73.94a382.36,382.36,0,0,1,27.38,33.71c51.83,71.67,67.9,145.82,72.86,186.92C858.62,453.66,862.38,484.87,860.57,516.72Z" style="fill:#fff"/></g></g></svg>